<svg preserveAspectRatio="none" width="100%" height="100%" overflow="visible" style="display: block;" viewBox="0 0 253.656 62.0156" fill="none" xmlns="http://www.w3.org/2000/svg">
<g id="Ocean">
<path id="Vector" d="M207.438 59.0625C208.219 58.8438 209.125 58.6562 210.156 58.5C212.125 58.2188 213.297 57.8906 213.672 57.5156C214.078 57.1406 214.281 56.2812 214.281 54.9375L214.375 53.25C214.406 52.625 214.422 51.8281 214.422 50.8594L214.328 36.4688C214.328 34.5312 214.078 33.2812 213.578 32.7188C212.734 31.8438 211.172 31.2344 208.891 30.8906V29.2031C211.172 28.5781 212.922 27.7656 214.141 26.7656C215.922 25.3594 217.422 23.4531 218.641 21.0469L220.234 21.0938C220.328 22.5625 220.375 23.6094 220.375 24.2344V27.3281L220.422 28.1719C220.797 27.9219 221.234 27.6094 221.734 27.2344C223.609 25.8281 225.531 24.6875 227.5 23.8125C229.469 22.9062 231.219 22.2812 232.75 21.9375C233.719 21.6875 234.812 21.5625 236.031 21.5625C238.594 21.5625 240.797 22.25 242.641 23.625C244.484 25 245.672 26.625 246.203 28.5C246.766 30.3438 247.047 34.0312 247.047 39.5625V46.6406C247.047 46.8281 247.016 47.4531 246.953 48.5156C246.922 49.5781 246.906 50.7969 246.906 52.1719C246.906 54.3594 247 55.75 247.188 56.3438C247.344 56.75 247.75 57.1562 248.406 57.5625C251.406 57.9688 253.156 58.4531 253.656 59.0156V59.3906C253.656 59.7031 253.562 60.0938 253.375 60.5625H252.484L246.297 60.5156L240.203 60.6094C237.953 60.6719 235.875 60.6562 233.969 60.5625L233.688 59.5781C233.688 59.3906 233.797 59.1406 234.016 58.8281C234.859 58.4531 236.047 58.2031 237.578 58.0781C238.484 58.0156 239.109 57.9219 239.453 57.7969C239.797 57.6719 240.219 57.4219 240.719 57.0469C241.094 56.2969 241.281 55.6719 241.281 55.1719C241.281 54.9531 241.25 54.5156 241.188 53.8594C241.094 52.4219 241.031 48.8438 241 43.125V40.6875L241.094 36.9375C241.094 32.9062 240.281 30.125 238.656 28.5938C237.031 27.0625 234.859 26.2969 232.141 26.2969C230.047 26.2969 228 26.7656 226 27.7031C224 28.6094 222.062 29.9844 220.188 31.8281C220.125 33.3281 220.094 34.6094 220.094 35.6719L220.234 46.0312C220.234 51.4375 220.312 54.75 220.469 55.9688C220.531 56.4688 220.641 56.8125 220.797 57C221.047 57.25 221.547 57.4531 222.297 57.6094C223.047 57.7656 223.906 57.9844 224.875 58.2656C225.875 58.5469 226.531 58.7188 226.844 58.7812C227.469 58.9375 227.891 59.25 228.109 59.7188L228.062 60.6562H223.141L213.016 60.5156C210.672 60.5781 209.188 60.6094 208.562 60.6094H207.391L207.297 60C207.297 59.7812 207.344 59.4688 207.438 59.0625Z" fill="var(--fill-0, #8A92A8)"/>
<path id="Vector_2" d="M200.766 54.1875C200.953 54.5938 201.047 54.8906 201.047 55.0781C201.047 55.5469 200.672 56.375 199.922 57.5625C198.953 59.125 197.875 60.2656 196.688 60.9844C195.938 61.4531 194.906 61.6875 193.594 61.6875C191.344 61.6875 189.656 61 188.531 59.625C187.844 58.8125 187.359 57.3594 187.078 55.2656L181.828 58.9219C179.984 59.9844 178.578 60.6562 177.609 60.9375C176.047 61.3438 174.172 61.5469 171.984 61.5469C170.391 61.5469 169.125 61.0781 168.188 60.1406C167.281 59.1719 166.828 57.9375 166.828 56.4375C166.828 54.2812 168.141 51.7031 170.766 48.7031C173.422 45.7031 177.016 43.25 181.547 41.3438C184.734 40 186.688 39.1406 187.406 38.7656C187.469 37.7344 187.5 36.6094 187.5 35.3906C187.5 31.4219 186.938 28.7344 185.812 27.3281C184.719 25.9219 183.141 25.2188 181.078 25.2188C178.922 25.2188 176.906 26.0625 175.031 27.75C173.875 28.8125 173 30.8125 172.406 33.75C172.219 34.5625 171.859 35.4375 171.328 36.375C169.984 37.25 168.906 37.6875 168.094 37.6875C167.406 37.6875 166.781 37.4844 166.219 37.0781C165.906 36.8594 165.75 36.6094 165.75 36.3281C165.75 35.5156 166.609 33.6875 168.328 30.8438C170.078 27.9688 172.266 25.8281 174.891 24.4219C177.547 22.9844 179.859 22.2656 181.828 22.2656C184.516 22.2656 186.516 22.5156 187.828 23.0156C189.141 23.4844 190.297 24.3281 191.297 25.5469C192.297 26.7656 192.906 28.0938 193.125 29.5312C193.25 30.2188 193.312 32.6719 193.312 36.8906L193.172 44.3438L193.219 49.7812C193.219 50.5 193.203 51.1094 193.172 51.6094C193.141 52.5156 193.125 53.1875 193.125 53.625C193.125 54.6562 193.422 55.4844 194.016 56.1094C194.609 56.7344 195.312 57.0469 196.125 57.0469C197.312 57.0469 198.328 56.4531 199.172 55.2656L199.734 54.5156C199.891 54.4219 200.234 54.3125 200.766 54.1875ZM186.984 52.8281C187.203 48.8594 187.312 46.0625 187.312 44.4375C187.312 43.5938 187.266 42.4531 187.172 41.0156C185.078 41.7656 182.859 42.9062 180.516 44.4375C178.172 45.9688 176.312 47.7344 174.938 49.7344C173.938 51.1719 173.438 52.5312 173.438 53.8125C173.438 55.0312 173.844 56.0469 174.656 56.8594C175.5 57.6719 176.547 58.0781 177.797 58.0781C178.766 58.0781 179.938 57.7344 181.312 57.0469C183.125 56.1406 185.016 54.7344 186.984 52.8281Z" fill="var(--fill-0, #8A92A8)"/>
<path id="Vector_3" d="M155.75 35.8125L136.953 35.9531H133.391C131.953 35.9531 130.484 36.0156 128.984 36.1406C128.703 37.0781 128.562 37.7188 128.562 38.0625L128.609 38.5312V39L128.562 41.2969C128.562 43.2031 129.156 45.5469 130.344 48.3281C131.562 51.0781 133.281 53.1875 135.5 54.6562C137.75 56.0938 140.547 56.8594 143.891 56.9531C145.672 56.8594 147.094 56.6406 148.156 56.2969C149.219 55.9531 150.719 55.1562 152.656 53.9062L156.031 51.1406L156.312 53.0156C156.312 53.2344 156.297 53.4688 156.266 53.7188C154.859 55.5 153.078 57.0625 150.922 58.4062C148.766 59.75 146.578 60.7344 144.359 61.3594C143.297 61.6406 141.547 61.7812 139.109 61.7812C136.891 61.7812 134.703 61.3281 132.547 60.4219C129.359 59.0469 126.844 56.8438 125 53.8125C123.188 50.75 122.281 47.0469 122.281 42.7031C122.281 41.3281 122.531 39.5625 123.031 37.4062C123.562 35.25 124.5 32.9531 125.844 30.5156C126.75 28.8594 127.859 27.5 129.172 26.4375C131.047 24.9375 132.688 23.8906 134.094 23.2969C136.125 22.4531 138.484 22.0312 141.172 22.0312C144.078 22.0312 146.453 22.5625 148.297 23.625C150.797 25.0312 152.656 26.8438 153.875 29.0625C155.125 31.2812 155.75 33.3125 155.75 35.1562V35.8125ZM129.594 34.125H131.797C133.391 34.125 138.141 33.875 146.047 33.375C147.297 33.3125 148.062 33.1875 148.344 33C148.906 32.4062 149.188 31.875 149.188 31.4062C149.188 30.4375 148.875 29.3438 148.25 28.125C147.625 26.875 146.656 25.9219 145.344 25.2656C144.062 24.5781 142.562 24.2344 140.844 24.2344C137.219 24.2344 134.312 25.5938 132.125 28.3125C130.438 30.375 129.594 32.3125 129.594 34.125Z" fill="var(--fill-0, #8A92A8)"/>
<path id="Vector_4" d="M112.047 51.9844L112.094 55.0312C109.656 57.625 107.25 59.4375 104.875 60.4688C102.5 61.5 99.7031 62.0156 96.4844 62.0156C92.9844 62.0156 89.8281 61.1094 87.0156 59.2969C84.2031 57.4531 82.0312 54.8594 80.5 51.5156C79 48.1719 78.25 44.8906 78.25 41.6719C78.25 38.1406 79.1562 34.8125 80.9688 31.6875C82.8125 28.5312 85.2344 26.1875 88.2344 24.6562C91.2656 23.0938 95.0625 22.3125 99.625 22.3125C104 22.3125 107.328 23.0625 109.609 24.5625C110.891 25.4375 111.531 26.5625 111.531 27.9375C111.531 28.9375 111.203 29.7656 110.547 30.4219C109.891 31.0781 109.047 31.4062 108.016 31.4062C106.453 31.4062 104.734 30.4375 102.859 28.5C101.703 27.3125 100.656 26.5 99.7188 26.0625C98.7812 25.5938 97.7344 25.3594 96.5781 25.3594C93.7969 25.3594 91.4844 26.5 89.6406 28.7812C87.0781 32.0312 85.7969 36.1094 85.7969 41.0156C85.7969 46.0781 87.1094 50.1094 89.7344 53.1094C92.3594 56.1094 95.4219 57.6094 98.9219 57.6094C101.359 57.6094 103.516 57.2188 105.391 56.4375C107.297 55.625 109.516 54.1406 112.047 51.9844Z" fill="var(--fill-0, #8A92A8)"/>
<path id="Vector_5" d="M0 30.6094C0 27.4219 0.375 24.5938 1.125 22.125C1.90625 19.625 3.20312 16.9219 5.01562 14.0156C6.82812 11.1094 9.01562 8.6875 11.5781 6.75C14.1406 4.78125 17.6875 3.04688 22.2188 1.54688C25.4062 0.515625 29.4375 0 34.3125 0C37.5938 0 40.7969 0.4375 43.9219 1.3125C47.0781 2.1875 49.9375 3.40625 52.5 4.96875C55.0625 6.53125 57.625 8.9375 60.1875 12.1875C61.9688 14.4375 63.3125 16.8594 64.2188 19.4531C65.4062 22.8594 66 26.375 66 30C66 34.125 65.5938 37.5469 64.7812 40.2656C64 42.9844 62.6719 45.6719 60.7969 48.3281C59.3281 50.3906 56.8125 52.7656 53.25 55.4531C50.875 57.2656 47.9219 58.7344 44.3906 59.8594C40.8594 60.9531 37.0469 61.5 32.9531 61.5C28.7969 61.5 25.0938 61.0156 21.8438 60.0469C18.5938 59.0781 15.875 57.9062 13.6875 56.5312C11.5312 55.125 9.29688 53.0625 6.98438 50.3438C4.70312 47.625 2.96875 44.625 1.78125 41.3438C0.59375 38.0625 0 34.4844 0 30.6094ZM32.5312 59.7656C35.1562 59.7656 37.875 59.4062 40.6875 58.6875C43.5312 57.9375 46.0469 56.7188 48.2344 55.0312C50.4219 53.3125 52.125 51.375 53.3438 49.2188C54.5938 47.0312 55.5938 44.2344 56.3438 40.8281C57.0938 37.4219 57.4688 34.0156 57.4688 30.6094C57.4688 26.3594 56.8438 22.1562 55.5938 18C54.625 14.8438 53.0469 12.0312 50.8594 9.5625C48.6719 7.0625 46.0312 5.14062 42.9375 3.79688C39.8438 2.42188 36.5469 1.73438 33.0469 1.73438C30.2031 1.73438 27.4219 2.20312 24.7031 3.14062C21.9844 4.07812 19.75 5.28125 18 6.75C16.25 8.1875 14.625 10.25 13.125 12.9375C11.625 15.5938 10.4844 18.5312 9.70312 21.75C8.92188 24.9688 8.53125 27.8125 8.53125 30.2812C8.53125 32.875 8.92188 35.8125 9.70312 39.0938C10.4844 42.375 11.5469 45.2188 12.8906 47.625C14.2656 50.0312 15.9375 52.1719 17.9062 54.0469C19.9062 55.8906 22.1406 57.3125 24.6094 58.3125C27.0781 59.2812 29.7188 59.7656 32.5312 59.7656Z" fill="var(--fill-0, #8A92A8)"/>
</g>
</svg>
